# xmcd
#
# Track frame offsets:
#	150
#	74112
#	133099
#	186033
#
# Disc length: 3778 seconds
#
# Revision: 0
# Processed by: cddbd v1.5.2PL0 Copyright (c) Steve Scherf et al.
# Submitted via: dBpowerAMP V4.0
#
DISCID=3c0ec004
DTITLE=Hossein Alizadeh - Salláneh
DYEAR=2003
DGENRE=Solo Sallaneh
TTITLE0=Mahtab Esfahan
TTITLE1=Peghah Segah
TTITLE2=Aftab Bayatekord
TTITLE3=Shamgah Afshari
EXTD=
EXTT0=
EXTT1=
EXTT2=
EXTT3=
PLAYORDER=
